<svg width="64" height="66" viewBox="0 0 64 66" fill="none" xmlns="http://www.w3.org/2000/svg">
<path d="M61.9382 29.6526L48.7167 16.454L46.8861 14.6183C46.7267 14.4579 46.5371 14.3306 46.3283 14.2438C46.1195 14.1569 45.8955 14.1122 45.6693 14.1122C45.443 14.1122 45.2191 14.1569 45.0102 14.2438C44.8014 14.3306 44.6118 14.4579 44.4525 14.6183L25.1579 33.89C25.0715 35.3547 24.4155 36.7277 23.3297 37.716C22.2439 38.7042 20.8144 39.2295 19.3463 39.1796C17.92 39.1192 16.5682 38.5267 15.5581 37.5191C14.548 36.5116 13.953 35.1622 13.8906 33.7377C13.8426 32.2706 14.3701 30.8428 15.3607 29.7585C16.3513 28.6742 17.7266 28.0191 19.1937 27.9329L39.0186 8.13871C39.2005 7.95529 39.3025 7.70758 39.3025 7.44941C39.3025 7.19125 39.2005 6.94351 39.0186 6.76009L37.3332 5.0767C37.2339 4.97645 37.1157 4.89686 36.9854 4.84254C36.8551 4.78822 36.7153 4.76025 36.5741 4.76025C36.4329 4.76025 36.2931 4.78822 36.1628 4.84254C36.0325 4.89686 35.9142 4.97645 35.8149 5.0767L31.8776 9.00217C31.4708 9.39667 30.9262 9.61734 30.3593 9.61734C29.7923 9.61734 29.2477 9.39667 28.841 9.00217L26.589 6.74558C26.2983 6.4602 25.9069 6.30028 25.4993 6.30028C25.0917 6.30028 24.7004 6.4602 24.4096 6.74558L1.69347 29.4422C1.15664 29.9773 0.730742 30.6129 0.440155 31.3126C0.149567 32.0124 0 32.7625 0 33.52C0 34.2775 0.149567 35.0276 0.440155 35.7274C0.730742 36.4271 1.15664 37.0627 1.69347 37.5978L14.6171 50.5134L17.1814 53.0675C17.6021 53.4858 18.1715 53.7206 18.7651 53.7206C19.3587 53.7206 19.9281 53.4858 20.3488 53.0675L39.4617 33.9771C39.5462 32.5111 40.2015 31.1363 41.2875 30.1465C42.3735 29.1567 43.804 28.6305 45.2733 28.6803C46.7008 28.7408 48.0536 29.3343 49.0639 30.3434C50.0742 31.3525 50.6684 32.7037 50.729 34.1295C50.7808 35.5964 50.2556 37.0252 49.2658 38.1101C48.276 39.1951 46.9003 39.8498 45.4332 39.9342L25.8189 59.5253C25.5253 59.8203 25.3604 60.2194 25.3604 60.6354C25.3604 61.0515 25.5253 61.4506 25.8189 61.7456L27.6496 63.5669C28.1779 64.0952 28.8052 64.5142 29.4958 64.8002C30.1864 65.0861 30.9266 65.2333 31.6742 65.2333C32.4217 65.2333 33.1619 65.0861 33.8525 64.8002C34.5431 64.5142 35.1704 64.0952 35.6987 63.5669L61.9382 37.3584C62.449 36.8549 62.8547 36.255 63.1316 35.5935C63.4085 34.9321 63.551 34.2224 63.551 33.5055C63.551 32.7886 63.4085 32.0788 63.1316 31.4174C62.8547 30.756 62.449 30.1561 61.9382 29.6526Z" fill="url(#paint0_linear_472_2)"/>
<path d="M27.4734 3.03687L26.2333 4.27694C26.0462 4.46405 26.0462 4.7674 26.2333 4.9545L27.4734 6.19457C27.6605 6.38168 27.9638 6.38168 28.1509 6.19457L29.391 4.9545C29.5781 4.7674 29.5781 4.46405 29.391 4.27694L28.1509 3.03687C27.9638 2.84977 27.6605 2.84977 27.4734 3.03687Z" fill="url(#paint1_linear_472_2)"/>
<path d="M30.2541 0.325993L29.0605 1.51961C28.8804 1.69971 28.8804 1.9917 29.0605 2.17179L30.2541 3.36541C30.4342 3.54551 30.7262 3.54551 30.9063 3.36541L32.0999 2.17179C32.28 1.9917 32.28 1.69971 32.0999 1.51961L30.9063 0.325993C30.7262 0.145898 30.4342 0.145898 30.2541 0.325993Z" fill="url(#paint2_linear_472_2)"/>
<path d="M32.842 3.17023L31.6484 4.36385C31.4683 4.54395 31.4683 4.83594 31.6484 5.01603L32.842 6.20965C33.0221 6.38975 33.3141 6.38975 33.4942 6.20965L34.6878 5.01603C34.8679 4.83594 34.8679 4.54395 34.6878 4.36385L33.4942 3.17023C33.3141 2.99014 33.0221 2.99014 32.842 3.17023Z" fill="url(#paint3_linear_472_2)"/>
<path d="M28.985 6.8436L30.217 5.61162C30.2987 5.52993 30.4095 5.48403 30.525 5.48403C30.6405 5.48403 30.7513 5.52993 30.833 5.61162L32.065 6.8436C32.1466 6.92528 32.1925 7.03607 32.1925 7.15159C32.1925 7.26711 32.1466 7.3779 32.065 7.45958L31.8001 7.72446C31.4635 8.061 31.0071 8.25006 30.5312 8.25006C30.0552 8.25006 29.5988 8.061 29.2622 7.72446L29.022 7.48421C28.9753 7.44604 28.937 7.39858 28.9096 7.34484C28.8822 7.2911 28.8662 7.23225 28.8627 7.17202C28.8593 7.1118 28.8683 7.0515 28.8894 6.99496C28.9104 6.93842 28.943 6.88689 28.985 6.8436Z" fill="url(#paint4_linear_472_2)"/>
<defs>
<linearGradient id="paint0_linear_472_2" x1="10.4407" y1="29.0404" x2="59.7089" y2="37.3326" gradientUnits="userSpaceOnUse">
<stop stop-color="#8CC63F"/>
<stop offset="1" stop-color="#3CB64A"/>
</linearGradient>
<linearGradient id="paint1_linear_472_2" x1="26.6616" y1="4.52633" x2="29.7471" y2="4.52633" gradientUnits="userSpaceOnUse">
<stop stop-color="#8CC63F"/>
<stop offset="1" stop-color="#3CB64A"/>
</linearGradient>
<linearGradient id="paint2_linear_472_2" x1="32.2506" y1="2.36834" x2="29.2807" y2="1.77436" gradientUnits="userSpaceOnUse">
<stop stop-color="#F7921E"/>
<stop offset="1" stop-color="#F16029"/>
</linearGradient>
<linearGradient id="paint3_linear_472_2" x1="31.4488" y1="4.80828" x2="34.8148" y2="4.80828" gradientUnits="userSpaceOnUse">
<stop stop-color="#8CC63F"/>
<stop offset="1" stop-color="#3CB64A"/>
</linearGradient>
<linearGradient id="paint4_linear_472_2" x1="28.8962" y1="7.17853" x2="32.0679" y2="7.17066" gradientUnits="userSpaceOnUse">
<stop stop-color="#8CC63F"/>
<stop offset="1" stop-color="#3CB64A"/>
</linearGradient>
</defs>
</svg>
